<svg width="18" height="23" xmlns="http://www.w3.org/2000/svg"><g transform="translate(0 -1)" fill="none" fill-rule="evenodd"><path d="M6 16H4a2 2 0 0 0-2 2v3a2 2 0 1 0 4 0v-5z" stroke="#141414" stroke-width="2"/><rect stroke="#141414" stroke-width="2" x="12" y="9" width="4" height="14" rx="2"/><path d="M17 1.97h-6V6a2 2 0 0 0 2 2h2a2 2 0 0 0 2-2V1.97z" stroke="#141414" stroke-width="2"/><path fill="#141414" d="M13 1h2v6h-2z"/><path d="M6 2.083A6.002 6.002 0 0 0 1 8v6a2 2 0 0 0 2 2h3V2.083z" stroke="#141414" stroke-width="2"/></g></svg>