<svg width="27" height="20" xmlns="http://www.w3.org/2000/svg"><path d="M27 13.09V9a3 3 0 0 0-3-3H14a3 3 0 0 0-3 3v4a3 3 0 0 0 3 3h4.48l4 3.39a1 1 0 0 0 1.41-.12 1 1 0 0 0 .24-.64V16A2.88 2.88 0 0 0 27 13.09zm-2 0a.88.88 0 0 1-.88.88h-2v2.47L19.21 14H14a1 1 0 0 1-1-1V9a1 1 0 0 1 1-1h10a1 1 0 0 1 1 1v4.09zm-9-8.93h-2V3a1 1 0 0 0-1-1H3a1 1 0 0 0-1 1v4.09a.88.88 0 0 0 .88.91h2v2.47L7.79 8H9v2h-.48l-4 3.39a1 1 0 0 1-1.41-.12 1 1 0 0 1-.24-.64V10A2.88 2.88 0 0 1 0 7.09V3a3 3 0 0 1 3-3h10a3 3 0 0 1 3 3v1.16z" fill-rule="evenodd"/></svg>