<svg width="16" height="17" xmlns="http://www.w3.org/2000/svg" xmlns:xlink="http://www.w3.org/1999/xlink"><defs><path id="a" d="M0 0h15.963v16.992H0z"/></defs><g fill="none" fill-rule="evenodd"><mask id="b" fill="#fff"><use xlink:href="#a"/></mask><path d="M2.342 16.99c.305.023.58-.115.828-.43C4.158 15.302 15.067 1.45 15.91.344c.153-.2-.062-.477-.306-.271-.39.328-11.628 9.61-11.628 9.61s-1.67-2.403-2.17-3.147c-.322-.477-.79-.66-1.266-.44-.4.185-.608.618-.522 1.084.14.75 1.53 8.35 1.683 9.19.063.345.391.6.64.62" fill="#C4001F" mask="url(#b)"/></g></svg>